<svg width="93" height="60" viewBox="0 0 93 60" fill="none" xmlns="http://www.w3.org/2000/svg">
<path d="M3.51624 19.8937C6.19026 18.297 8.7864 16.3652 9.44841 14.2213C10.1104 12.0774 17.7197 9.05584 18.9996 9.81961C20.2795 10.5878 21.7905 9.85087 22.5589 8.16031C23.3274 6.46975 31.5831 2.48565 33.5769 3.48614C35.5708 4.48663 39.0158 3.54867 40.2179 2.46332C41.4199 1.37797 50.3194 1.25291 51.3553 2.88764C52.3912 4.52237 54.1098 4.21865 56.1763 3.48614C58.2454 2.75141 64.6553 2.84074 65.4887 4.35934C66.322 5.88018 68.5028 6.86057 70.089 6.46082C71.6753 6.06107 77.7918 7.43228 77.1531 9.41762C76.5171 11.403 77.9761 12.8367 80.1283 12.7362C82.2779 12.638 86.0994 16.4456 85.7256 17.3925C85.3517 18.3394 86.8108 19.5029 88.288 20.0657C89.7652 20.6285 90.1312 25.7136 86.0475 27.0155C81.9638 28.3175 16.014 33.3691 10.8789 28.4314C5.74372 23.4915 3.51624 19.8937 3.51624 19.8937Z" fill="#FFD983"/>
<path d="M54.0033 18.058C52.7572 28.016 45.9812 35.8345 41.4432 35.37C36.9025 34.9055 34.2337 26.4572 35.4799 16.4992C36.726 6.54562 39.6051 0 45.6282 0C52.2535 0 55.2469 8.10442 54.0033 18.058Z" fill="#FFD983"/>
<path d="M67.1917 18.8554C65.9455 28.8134 59.1696 36.6319 54.6316 36.1674C50.0909 35.7029 47.4221 27.2546 48.6682 17.2966C49.9144 7.34303 53.4036 4.10706 59.1463 2.4634C66.6024 0.332891 68.4378 8.90183 67.1917 18.8554Z" fill="#FFD983"/>
<path d="M73.0122 24.7376C68.7961 34.0055 62.3655 40.3903 58.6426 39.0035C54.9223 37.6167 56.2931 29.2978 59.5331 19.7172C63.8686 6.8873 71.4234 4.96448 75.1463 6.35132C78.8639 7.73593 77.2284 15.4719 73.0122 24.7376Z" fill="#FFD983"/>
<path d="M75.9277 30.2738C68.6741 37.8467 60.3301 42.0474 57.29 39.6601C54.25 37.275 57.6613 29.2018 64.9123 21.6312C72.1633 14.0605 80.6008 11.4543 84.212 13.0622C89.207 15.2843 83.1787 22.7031 75.9277 30.2738Z" fill="#FFD983"/>
<path d="M75.6603 35.955C64.9694 38.5612 55.3273 37.4044 54.1279 33.3667C52.9285 29.3335 60.6157 23.9447 71.3066 21.3385C81.9949 18.7301 90.8919 18.375 92.839 23.9268C94.2383 27.9087 86.3512 33.3488 75.6603 35.955ZM43.7018 16.2869C40.1088 6.8068 33.5457 0.837355 27.72 2.85844C21.3958 5.05148 20.1834 13.339 23.7765 22.8169C27.3643 32.2947 36.9181 38.3625 40.7267 37.1788C44.5326 35.9952 47.2949 25.7625 43.7018 16.2869Z" fill="#FFD983"/>
<path d="M30.137 19.8669C23.0885 12.1377 16.6994 5.89356 11.7537 10.0742C6.84963 14.2213 8.98106 23.2682 16.0296 30.9952C23.0729 38.7244 34.1714 40.3748 37.2764 38.0544C40.3788 35.7386 37.1855 27.5939 30.137 19.8669Z" fill="#FFD983"/>
<path d="M21.6139 22.5065C5.19071 15.9252 1.60804 20.1683 0.17757 23.574C-1.2555 26.9775 6.14869 34.8184 16.4943 38.3871C26.8373 41.9603 36.3885 42.0898 37.8216 38.6863C39.2547 35.2851 31.7362 26.5643 21.6139 22.5065Z" fill="#FFD983"/>
<path d="M92.3224 43.0704C92.3224 54.9333 72.1971 59.181 47.3702 59.181C22.5433 59.181 0.546234 52.2468 0.546234 40.3838C0.546234 28.5208 22.5433 8.1604 47.3702 8.1604C72.1945 8.1604 92.3224 31.2052 92.3224 43.0704Z" fill="#FFD983"/>
<path d="M50.4908 26.533C50.4908 33.2081 49.0941 38.617 47.3702 38.617C45.6464 38.617 44.2497 33.2081 44.2497 26.533C44.2497 19.8601 45.6464 14.4512 47.3702 14.4512C49.0915 14.4512 50.4908 19.8601 50.4908 26.533ZM62.6511 26.0193C63.9829 31.6761 63.809 36.4776 62.2669 36.7478C60.7222 37.0158 58.3934 32.6521 57.059 26.993C55.7272 21.3385 55.8985 16.5348 57.4432 16.2668C58.9879 15.9966 61.3167 20.3626 62.6511 26.0193ZM72.654 26.5174C75.1074 30.8588 75.9485 34.8563 74.5336 35.4503C73.1161 36.0421 69.98 33.0049 67.5241 28.6613C65.0707 24.3199 64.2296 20.3224 65.6445 19.7283C67.0619 19.1365 70.1981 22.1782 72.654 26.5174ZM37.6243 26.265C35.9472 32.297 33.3926 36.9399 31.9102 36.6362C30.4278 36.3302 30.5862 31.196 32.2581 25.164C33.9326 19.132 36.7702 15.5522 38.2526 15.8581C39.7376 16.1618 39.2988 20.2353 37.6243 26.265ZM26.4012 27.1002C24.1478 31.4327 21.1622 34.4967 19.7213 33.9429C18.2831 33.389 18.9425 29.4317 21.1934 25.097C23.4442 20.7645 26.6089 18.5871 28.0472 19.141C29.4854 19.697 28.6521 22.77 26.4012 27.1002Z" fill="#FFAC33"/>
<path d="M33.1693 5.73724C34.5037 7.08388 34.7737 8.83474 33.7742 9.64764C32.7721 10.4605 30.8795 10.0251 29.5451 8.67841C28.2107 7.33177 27.9407 5.58091 28.9402 4.76801C29.9397 3.95735 31.8349 4.39059 33.1693 5.73724ZM16.5748 13.4687C17.2575 15.1704 16.7876 16.8856 15.5233 17.3009C14.259 17.7163 12.6806 16.6756 11.9978 14.9739C11.315 13.2722 11.7849 11.5571 13.0492 11.1417C14.3135 10.7285 15.892 11.7692 16.5748 13.4687ZM7.50904 24.4205C9.23028 25.6979 9.93643 27.4979 9.0849 28.4381C8.23337 29.3783 6.14607 29.1058 4.42223 27.8284C2.70099 26.551 1.99484 24.751 2.84638 23.8108C3.70051 22.8684 5.7878 23.1431 7.50904 24.4205ZM48.2451 3.84345C49.5795 5.19009 49.8495 6.94095 48.85 7.75385C47.8479 8.56675 45.9553 8.13127 44.6209 6.78463C43.2864 5.43798 43.0164 3.68712 44.016 2.87423C45.0155 2.06133 46.9107 2.49458 48.2451 3.84345Z" fill="#FFCC4D"/>
<path d="M62.0968 10.9293C63.6973 10.8513 64.885 9.12299 64.7498 7.069C64.6145 5.01501 63.2075 3.41314 61.607 3.49112C60.0066 3.56911 58.8188 5.29741 58.9541 7.3514C59.0893 9.40539 60.4964 11.0073 62.0968 10.9293Z" fill="#FFCC4D"/>
<path d="M75.2969 11.5593C75.6785 13.3348 74.9152 14.9628 73.5964 15.195C72.2775 15.4273 70.899 14.1745 70.5174 12.399C70.1357 10.6236 70.899 8.99557 72.2178 8.76332C73.5367 8.53106 74.9152 9.78391 75.2969 11.5593ZM83.5188 19.2327C82.6543 20.7603 80.985 21.5508 79.7882 20.997C78.5914 20.4432 78.3214 18.7548 79.1833 17.2273C80.0478 15.6998 81.7171 14.9092 82.9139 15.463C84.1133 16.0169 84.3833 17.703 83.5188 19.2327ZM89.451 27.7414C88.3762 28.9295 86.5485 29.184 85.3699 28.3108C84.1912 27.4377 84.1108 25.765 85.1856 24.5791C86.263 23.391 88.088 23.1364 89.2667 24.0096C90.4427 24.8828 90.5258 26.5533 89.451 27.7414Z" fill="#FFCC4D"/>
<path d="M18.4475 38.66C18.1275 38.66 17.9008 38.6267 17.7675 38.56C17.6342 38.4933 17.5542 38.4133 17.5275 38.32C17.5008 38.2267 17.4875 38.1467 17.4875 38.08C17.4875 38.0733 17.4875 38.07 17.4875 38.07C17.4875 37.9233 17.5542 37.7833 17.6875 37.65C17.8208 37.51 18.0075 37.4133 18.2475 37.36C18.4475 37.32 18.6842 37.28 18.9575 37.24C19.2375 37.1933 19.5308 37.1533 19.8375 37.12C20.1508 37.08 20.4508 37.05 20.7375 37.03C21.0242 37.01 21.2775 37 21.4975 37C21.7908 37 22.0175 37.0433 22.1775 37.13C22.3375 37.21 22.4475 37.3033 22.5075 37.41C22.5742 37.5167 22.6075 37.6067 22.6075 37.68C22.6075 37.7467 22.5908 37.8133 22.5575 37.88C22.5242 37.9467 22.4408 38.0133 22.3075 38.08C22.1808 38.1467 21.9775 38.21 21.6975 38.27C21.4175 38.33 21.0308 38.3867 20.5375 38.44C20.4908 38.4467 20.4408 38.4533 20.3875 38.46C20.3408 38.7467 20.2842 39.09 20.2175 39.49C20.1508 39.8833 20.0775 40.2967 19.9975 40.73C19.9242 41.1567 19.8508 41.5667 19.7775 41.96C19.7108 42.3467 19.6508 42.6767 19.5975 42.95C19.8708 42.9233 20.1108 42.9033 20.3175 42.89C20.5308 42.8767 20.6742 42.87 20.7475 42.87C20.9808 42.87 21.1408 42.92 21.2275 43.02C21.3142 43.1133 21.3575 43.2367 21.3575 43.39C21.3575 43.45 21.2508 43.5433 21.0375 43.67C20.8242 43.7967 20.5275 43.9333 20.1475 44.08C19.7742 44.2267 19.3442 44.3567 18.8575 44.47C18.5375 44.5433 18.2208 44.6 17.9075 44.64C17.5942 44.68 17.3675 44.7 17.2275 44.7C16.9542 44.7 16.7775 44.65 16.6975 44.55C16.6242 44.45 16.5875 44.3233 16.5875 44.17C16.5875 44.0367 16.6275 43.9 16.7075 43.76C16.7942 43.62 16.9142 43.52 17.0675 43.46C17.2275 43.4 17.4042 43.3433 17.5975 43.29C17.7908 43.2367 17.9908 43.19 18.1975 43.15C18.2108 42.9767 18.2375 42.7467 18.2775 42.46C18.3175 42.1733 18.3608 41.86 18.4075 41.52C18.4608 41.1733 18.5142 40.8233 18.5675 40.47C18.6275 40.11 18.6842 39.7733 18.7375 39.46C18.7975 39.14 18.8475 38.8633 18.8875 38.63C18.6942 38.65 18.5475 38.66 18.4475 38.66ZM31.056 44.87C30.8693 44.87 30.6827 44.7533 30.496 44.52C30.316 44.2867 30.1493 43.9167 29.996 43.41C29.8427 42.9033 29.7193 42.2433 29.626 41.43C29.5393 40.61 29.496 39.6133 29.496 38.44C29.496 37.7867 29.526 37.2767 29.586 36.91C29.646 36.5367 29.726 36.2633 29.826 36.09C29.9327 35.9167 30.0527 35.8067 30.186 35.76C30.3193 35.7133 30.456 35.69 30.596 35.69C30.776 35.69 30.9293 35.7567 31.056 35.89C31.1893 36.0233 31.256 36.2067 31.256 36.44C31.256 36.6467 31.186 36.9033 31.046 37.21C31.006 37.5367 30.9793 37.83 30.966 38.09C30.9593 38.3433 30.956 38.6133 30.956 38.9C30.956 39.3533 30.9627 39.8167 30.976 40.29C30.996 40.7567 31.0227 41.2067 31.056 41.64C31.0893 42.0667 31.126 42.4467 31.166 42.78C31.3327 42.3733 31.5193 41.9233 31.726 41.43C31.9327 40.9367 32.1393 40.44 32.346 39.94C32.5593 39.44 32.7593 38.97 32.946 38.53C33.1393 38.0833 33.3027 37.7033 33.436 37.39C33.576 37.0767 33.6693 36.8633 33.716 36.75C33.8827 36.35 34.0627 36.0633 34.256 35.89C34.4493 35.7167 34.646 35.63 34.846 35.63C35.006 35.63 35.1427 35.68 35.256 35.78C35.3693 35.88 35.426 36.07 35.426 36.35C35.426 36.4033 35.3727 36.56 35.266 36.82C35.166 37.08 35.026 37.4133 34.846 37.82C34.6727 38.22 34.476 38.6667 34.256 39.16C34.0427 39.6467 33.8227 40.15 33.596 40.67C33.3493 41.2367 33.1027 41.7733 32.856 42.28C32.616 42.7867 32.3827 43.2333 32.156 43.62C31.936 44.0067 31.7293 44.31 31.536 44.53C31.3493 44.7567 31.1893 44.87 31.056 44.87ZM41.1601 39.67C41.1601 40.1033 40.9134 40.5333 40.4201 40.96C39.9334 41.38 39.1767 41.7533 38.1501 42.08C38.1501 42.0867 38.1501 42.0967 38.1501 42.11C38.1501 42.33 38.1767 42.5067 38.2301 42.64C38.2834 42.7667 38.4001 42.83 38.5801 42.83C38.8467 42.83 39.1434 42.75 39.4701 42.59C39.8034 42.4233 40.1467 42.2133 40.5001 41.96C40.8601 41.7 41.2101 41.4267 41.5501 41.14C41.8901 40.8533 42.2034 40.5833 42.4901 40.33C42.7834 40.07 43.0301 39.86 43.2301 39.7C43.4367 39.5333 43.5734 39.45 43.6401 39.45C43.7801 39.45 43.8967 39.5033 43.9901 39.61C44.0901 39.7167 44.1401 39.8767 44.1401 40.09C44.1401 40.21 44.1334 40.3533 44.1201 40.52C44.4134 40.0133 44.7534 39.5967 45.1401 39.27C45.5267 38.9367 45.9067 38.69 46.2801 38.53C46.6601 38.3633 46.9834 38.28 47.2501 38.28C47.5501 38.28 47.7534 38.34 47.8601 38.46C47.9667 38.5733 48.0201 38.6933 48.0201 38.82C48.0201 38.8933 48.0034 38.9667 47.9701 39.04C47.9434 39.1067 47.8701 39.18 47.7501 39.26C47.6367 39.34 47.4467 39.4333 47.1801 39.54C46.8267 39.6733 46.4901 39.83 46.1701 40.01C45.8567 40.19 45.5667 40.4367 45.3001 40.75C45.0401 41.0567 44.8034 41.47 44.5901 41.99C44.3834 42.5033 44.2101 43.1633 44.0701 43.97C44.0234 44.1967 43.9501 44.35 43.8501 44.43C43.7501 44.5167 43.6334 44.56 43.5001 44.56C43.4867 44.56 43.4634 44.56 43.4301 44.56C43.3701 44.5667 43.3067 44.56 43.2401 44.54C43.1801 44.5267 43.1201 44.47 43.0601 44.37C43.0067 44.2767 42.9634 44.1133 42.9301 43.88C42.8967 43.6467 42.8801 43.3133 42.8801 42.88C42.8801 42.62 42.8901 42.3467 42.9101 42.06C42.9367 41.7667 42.9701 41.4633 43.0101 41.15C42.6701 41.4833 42.3067 41.82 41.9201 42.16C41.5334 42.5 41.1334 42.8133 40.7201 43.1C40.3134 43.38 39.9134 43.6067 39.5201 43.78C39.1334 43.9533 38.7734 44.04 38.4401 44.04C37.9934 44.04 37.6267 43.8967 37.3401 43.61C37.0601 43.3167 36.9201 42.8667 36.9201 42.26C36.9201 41.66 37.0001 41.1167 37.1601 40.63C37.3267 40.1367 37.5401 39.7133 37.8001 39.36C38.0601 39.0067 38.3367 38.7367 38.6301 38.55C38.9301 38.3567 39.2101 38.26 39.4701 38.26C40.0234 38.26 40.4434 38.3933 40.7301 38.66C41.0167 38.92 41.1601 39.2567 41.1601 39.67ZM38.2801 41.19C38.4534 41.1033 38.6367 41.0033 38.8301 40.89C39.0301 40.77 39.2167 40.6467 39.3901 40.52C39.5634 40.3867 39.7034 40.2567 39.8101 40.13C39.9234 40.0033 39.9801 39.8833 39.9801 39.77C39.9801 39.5833 39.9267 39.47 39.8201 39.43C39.7201 39.3833 39.5834 39.36 39.4101 39.36C39.2301 39.36 39.0667 39.4567 38.9201 39.65C38.7734 39.8367 38.6467 40.07 38.5401 40.35C38.4334 40.63 38.3467 40.91 38.2801 41.19ZM48.9422 44.51C48.6555 44.51 48.4522 44.47 48.3322 44.39C48.2189 44.31 48.1622 44.1933 48.1622 44.04C48.1622 43.9067 48.2089 43.7933 48.3022 43.7C48.3955 43.6 48.6022 43.5 48.9222 43.4C49.2955 43.2867 49.6489 43.1567 49.9822 43.01C50.3222 42.8567 50.5989 42.69 50.8122 42.51C51.0322 42.33 51.1422 42.14 51.1422 41.94C51.1422 41.8067 51.0955 41.71 51.0022 41.65C50.9155 41.59 50.8122 41.56 50.6922 41.56C50.5922 41.56 50.4455 41.5767 50.2522 41.61C50.0655 41.6367 49.8589 41.6733 49.6322 41.72C49.4055 41.76 49.1855 41.7967 48.9722 41.83C48.7655 41.8567 48.5889 41.87 48.4422 41.87C48.0955 41.87 47.8389 41.7933 47.6722 41.64C47.5055 41.48 47.4222 41.2767 47.4222 41.03C47.4222 40.8967 47.4922 40.7133 47.6322 40.48C47.7722 40.2467 47.9589 39.99 48.1922 39.71C48.4255 39.43 48.6855 39.15 48.9722 38.87C49.2589 38.59 49.5489 38.3333 49.8422 38.1C50.1422 37.86 50.4255 37.67 50.6922 37.53C50.9589 37.3833 51.1855 37.31 51.3722 37.31C51.5855 37.31 51.7555 37.3767 51.8822 37.51C52.0155 37.6433 52.0822 37.8233 52.0822 38.05C52.0822 38.1567 52.0722 38.2733 52.0522 38.4C52.0322 38.52 51.9822 38.63 51.9022 38.73C51.8222 38.8233 51.6989 38.89 51.5322 38.93C51.3655 38.97 51.1389 38.9633 50.8522 38.91C50.6255 39.0767 50.3889 39.26 50.1422 39.46C49.9022 39.6533 49.6755 39.8567 49.4622 40.07C49.2489 40.2767 49.0722 40.48 48.9322 40.68C49.1789 40.6 49.4589 40.5367 49.7722 40.49C50.0855 40.4367 50.4022 40.41 50.7222 40.41C51.1089 40.41 51.4222 40.48 51.6622 40.62C51.9089 40.7533 52.0889 40.9333 52.2022 41.16C52.3222 41.3867 52.3822 41.6367 52.3822 41.91C52.3822 42.2167 52.2822 42.5233 52.0822 42.83C51.8822 43.1367 51.6155 43.4167 51.2822 43.67C50.9489 43.9233 50.5789 44.1267 50.1722 44.28C49.7655 44.4333 49.3555 44.51 48.9422 44.51ZM54.0318 44.15C53.8451 44.15 53.6785 44.0867 53.5318 43.96C53.3918 43.8333 53.3218 43.6267 53.3218 43.34C53.3218 43.1867 53.3418 42.97 53.3818 42.69C53.4285 42.41 53.4885 42.1067 53.5618 41.78C53.6351 41.4467 53.7151 41.1167 53.8018 40.79C53.8951 40.4633 53.9851 40.1733 54.0718 39.92C54.1585 39.66 54.2351 39.4667 54.3018 39.34C54.3885 39.1867 54.4685 39.0933 54.5418 39.06C54.6218 39.02 54.6985 39 54.7718 39C54.9051 39 55.0285 39.04 55.1418 39.12C55.2618 39.2 55.3218 39.3767 55.3218 39.65C55.3218 39.7567 55.3018 39.93 55.2618 40.17C55.2218 40.4033 55.1718 40.6767 55.1118 40.99C55.0518 41.3033 54.9851 41.6267 54.9118 41.96C54.8451 42.2933 54.7785 42.61 54.7118 42.91C54.6518 43.2033 54.6018 43.45 54.5618 43.65C54.5285 43.8167 54.4585 43.94 54.3518 44.02C54.2518 44.1067 54.1451 44.15 54.0318 44.15ZM55.1818 38.01C54.9618 38.01 54.7585 37.9467 54.5718 37.82C54.3851 37.6867 54.2918 37.4833 54.2918 37.21C54.2918 36.9833 54.3485 36.8 54.4618 36.66C54.5751 36.52 54.7085 36.42 54.8618 36.36C55.0218 36.2933 55.1618 36.26 55.2818 36.26C55.4018 36.26 55.5351 36.2867 55.6818 36.34C55.8285 36.3867 55.9551 36.4767 56.0618 36.61C56.1751 36.7367 56.2318 36.92 56.2318 37.16C56.2318 37.32 56.1751 37.4667 56.0618 37.6C55.9485 37.7267 55.8085 37.8267 55.6418 37.9C55.4818 37.9733 55.3285 38.01 55.1818 38.01ZM65.9877 38.65C66.3544 37.7767 66.6777 36.8767 66.9577 35.95C67.0111 35.7633 67.0877 35.62 67.1877 35.52C67.2944 35.42 67.4411 35.37 67.6277 35.37C67.7811 35.37 67.8977 35.4167 67.9777 35.51C68.0577 35.5967 68.0977 35.7167 68.0977 35.87C68.0977 35.9967 68.0444 36.2233 67.9377 36.55C67.8311 36.87 67.7011 37.2767 67.5477 37.77C67.3944 38.2633 67.2411 38.8333 67.0877 39.48C66.9344 40.1267 66.8044 40.8367 66.6977 41.61C66.5911 42.3833 66.5377 43.21 66.5377 44.09C66.5377 44.33 66.4911 44.5267 66.3977 44.68C66.3111 44.84 66.1577 44.92 65.9377 44.92C65.6977 44.92 65.5211 44.8367 65.4077 44.67C65.3011 44.5033 65.2477 44.29 65.2477 44.03C65.2477 43.5167 65.2644 43.09 65.2977 42.75C65.3377 42.4033 65.3777 42.1067 65.4177 41.86C65.0911 42.42 64.7444 42.9033 64.3777 43.31C64.0177 43.71 63.6711 44.0167 63.3377 44.23C63.0044 44.45 62.7177 44.56 62.4777 44.56C62.0844 44.56 61.7644 44.45 61.5177 44.23C61.2711 44.01 61.1477 43.6767 61.1477 43.23C61.1477 42.8833 61.2311 42.5267 61.3977 42.16C61.5644 41.7867 61.7844 41.42 62.0577 41.06C62.3311 40.7 62.6311 40.3633 62.9577 40.05C63.2911 39.73 63.6244 39.45 63.9577 39.21C64.2911 38.9633 64.6011 38.77 64.8877 38.63C65.1744 38.49 65.4077 38.42 65.5877 38.42C65.7877 38.42 65.9211 38.4967 65.9877 38.65ZM65.7577 39.19C65.7177 39.2167 65.6744 39.2433 65.6277 39.27C65.5877 39.29 65.5477 39.3133 65.5077 39.34C65.2544 39.5 64.9844 39.6933 64.6977 39.92C64.4111 40.14 64.1277 40.3867 63.8477 40.66C63.5677 40.9267 63.3111 41.2067 63.0777 41.5C62.8511 41.7867 62.6677 42.0733 62.5277 42.36C62.3944 42.64 62.3277 42.91 62.3277 43.17C62.3277 43.2167 62.3477 43.25 62.3877 43.27C62.4277 43.29 62.4644 43.3 62.4977 43.3C62.7311 43.3 62.9811 43.1967 63.2477 42.99C63.5211 42.7833 63.7977 42.4967 64.0777 42.13C64.3644 41.7567 64.6477 41.32 64.9277 40.82C65.2144 40.32 65.4911 39.7767 65.7577 39.19ZM69.9967 44.34C69.5834 44.34 69.2501 44.1967 68.9967 43.91C68.7434 43.6167 68.6167 43.1467 68.6167 42.5C68.6167 42.0867 68.6634 41.6733 68.7567 41.26C68.8567 40.84 68.9934 40.4433 69.1667 40.07C69.3467 39.69 69.5534 39.3533 69.7867 39.06C70.0267 38.7667 70.2901 38.5367 70.5767 38.37C70.8634 38.1967 71.1601 38.11 71.4667 38.11C71.9867 38.11 72.3934 38.25 72.6867 38.53C72.9801 38.81 73.1267 39.1667 73.1267 39.6C73.1267 39.9333 73.0334 40.2367 72.8467 40.51C72.6667 40.7767 72.4201 41.0167 72.1067 41.23C71.7934 41.4433 71.4434 41.6367 71.0567 41.81C70.6701 41.9833 70.2734 42.14 69.8667 42.28C69.8334 42.52 69.8167 42.7333 69.8167 42.92C69.8167 43.0333 69.8801 43.09 70.0067 43.09C70.3067 43.09 70.6267 43.0433 70.9667 42.95C71.3134 42.85 71.6634 42.7233 72.0167 42.57C72.3701 42.41 72.7101 42.2467 73.0367 42.08C73.3634 41.9067 73.6601 41.7433 73.9267 41.59C74.2001 41.43 74.4234 41.3033 74.5967 41.21C74.7767 41.11 74.8934 41.06 74.9467 41.06C75.0934 41.06 75.2001 41.1033 75.2667 41.19C75.3334 41.2767 75.3667 41.37 75.3667 41.47C75.3667 41.5167 75.2767 41.62 75.0967 41.78C74.9234 41.94 74.6834 42.13 74.3767 42.35C74.0767 42.5633 73.7367 42.7867 73.3567 43.02C72.9834 43.2467 72.5934 43.4633 72.1867 43.67C71.7867 43.87 71.3967 44.03 71.0167 44.15C70.6434 44.2767 70.3034 44.34 69.9967 44.34ZM70.0367 41.39C70.3101 41.23 70.5801 41.0633 70.8467 40.89C71.1201 40.71 71.3467 40.51 71.5267 40.29C71.7067 40.0633 71.7967 39.8 71.7967 39.5C71.7967 39.4133 71.7734 39.3567 71.7267 39.33C71.6801 39.2967 71.6134 39.28 71.5267 39.28C71.2934 39.28 71.0801 39.3833 70.8867 39.59C70.7001 39.7967 70.5334 40.0633 70.3867 40.39C70.2467 40.71 70.1301 41.0433 70.0367 41.39ZM76.7291 44.5C76.1291 44.5 75.6557 44.3167 75.3091 43.95C74.9691 43.5767 74.7991 43.0467 74.7991 42.36C74.7991 41.9867 74.8491 41.55 74.9491 41.05C75.0491 40.5433 75.1791 40.01 75.3391 39.45C75.5057 38.8833 75.6824 38.3233 75.8691 37.77C76.0624 37.2167 76.2524 36.7033 76.4391 36.23C76.6257 35.7567 76.7891 35.36 76.9291 35.04C77.0491 34.7933 77.2191 34.67 77.4391 34.67C77.5791 34.67 77.6924 34.7133 77.7791 34.8C77.8724 34.8867 77.9191 35.0267 77.9191 35.22C77.9191 35.3133 77.8724 35.5167 77.7791 35.83C77.6857 36.1433 77.5624 36.53 77.4091 36.99C77.2624 37.4433 77.1024 37.9333 76.9291 38.46C76.7624 38.9867 76.6024 39.5167 76.4491 40.05C76.3024 40.5833 76.1824 41.0867 76.0891 41.56C75.9957 42.0267 75.9491 42.4233 75.9491 42.75C75.9491 42.8833 75.9857 42.99 76.0591 43.07C76.1391 43.15 76.2424 43.19 76.3691 43.19C76.6424 43.19 76.9224 43.14 77.2091 43.04C77.5024 42.94 77.7891 42.8133 78.0691 42.66C78.3557 42.5067 78.6257 42.3433 78.8791 42.17C79.1324 41.9967 79.3591 41.8333 79.5591 41.68C79.7657 41.52 79.9324 41.3933 80.0591 41.3C80.2257 41.1733 80.3391 41.11 80.3991 41.11C80.6257 41.11 80.7391 41.22 80.7391 41.44C80.7391 41.4933 80.6724 41.6033 80.5391 41.77C80.4257 41.9167 80.2657 42.1033 80.0591 42.33C79.8524 42.5567 79.6124 42.7967 79.3391 43.05C79.0724 43.2967 78.7857 43.53 78.4791 43.75C78.1791 43.97 77.8791 44.15 77.5791 44.29C77.2791 44.43 76.9957 44.5 76.7291 44.5ZM32.8561 53C32.4561 53 32.0761 52.9133 31.7161 52.74C31.3628 52.56 31.0728 52.3067 30.8461 51.98C30.6261 51.6467 30.5161 51.2567 30.5161 50.81C30.5161 50.37 30.6094 49.9333 30.7961 49.5C30.9828 49.06 31.2261 48.6367 31.5261 48.23C31.8328 47.8167 32.1628 47.4333 32.5161 47.08C32.8761 46.7267 33.2261 46.42 33.5661 46.16C33.9128 45.8933 34.2194 45.6867 34.4861 45.54C34.7594 45.3867 34.9594 45.31 35.0861 45.31C35.2194 45.31 35.3561 45.3667 35.4961 45.48C35.6361 45.5933 35.7094 45.7567 35.7161 45.97C35.7161 46.0633 35.6894 46.17 35.6361 46.29C35.5828 46.41 35.4594 46.53 35.2661 46.65C35.0994 46.75 34.8761 46.8967 34.5961 47.09C34.3228 47.2833 34.0328 47.51 33.7261 47.77C33.4194 48.03 33.1261 48.32 32.8461 48.64C32.5728 48.9533 32.3494 49.2867 32.1761 49.64C32.0028 49.9933 31.9161 50.3567 31.9161 50.73C31.9161 51.0367 32.0061 51.27 32.1861 51.43C32.3661 51.5833 32.6094 51.66 32.9161 51.66C33.1294 51.66 33.3828 51.6 33.6761 51.48C33.9761 51.36 34.2828 51.2067 34.5961 51.02C34.9094 50.8267 35.1961 50.62 35.4561 50.4C35.7228 50.18 35.9294 49.97 36.0761 49.77C35.8228 49.8233 35.5428 49.8833 35.2361 49.95C34.9361 50.01 34.6561 50.0633 34.3961 50.11C34.1361 50.15 33.9494 50.17 33.8361 50.17C33.6361 50.17 33.4694 50.13 33.3361 50.05C33.2028 49.97 33.1028 49.8767 33.0361 49.77C32.9694 49.6567 32.9361 49.55 32.9361 49.45C32.9361 49.3367 32.9794 49.22 33.0661 49.1C33.1528 48.98 33.3028 48.9033 33.5161 48.87C33.6561 48.85 33.8461 48.82 34.0861 48.78C34.3261 48.7333 34.5761 48.69 34.8361 48.65C35.1028 48.6033 35.3461 48.5633 35.5661 48.53C35.7928 48.4967 35.9628 48.48 36.0761 48.48C36.9161 48.48 37.3361 48.95 37.3361 49.89C37.3361 50.07 37.2428 50.2933 37.0561 50.56C36.8694 50.82 36.6161 51.0933 36.2961 51.38C35.9828 51.66 35.6294 51.9233 35.2361 52.17C34.8428 52.4167 34.4394 52.6167 34.0261 52.77C33.6194 52.9233 33.2294 53 32.8561 53ZM39.1257 53.44C38.959 53.44 38.8157 53.38 38.6957 53.26C38.5824 53.14 38.5257 52.9667 38.5257 52.74C38.5257 52.64 38.539 52.4767 38.5657 52.25C38.599 52.0167 38.639 51.75 38.6857 51.45C38.739 51.15 38.789 50.8367 38.8357 50.51C38.889 50.1833 38.9324 49.8733 38.9657 49.58C39.0057 49.2867 39.0324 49.0367 39.0457 48.83C39.059 48.5767 39.1257 48.3967 39.2457 48.29C39.3657 48.1767 39.509 48.12 39.6757 48.12C39.809 48.12 39.929 48.1533 40.0357 48.22C40.149 48.28 40.219 48.41 40.2457 48.61C40.279 48.8033 40.2824 49.0833 40.2557 49.45C40.549 48.9167 40.8457 48.44 41.1457 48.02C41.4524 47.6 41.7724 47.2667 42.1057 47.02C42.659 46.6 43.159 46.39 43.6057 46.39C43.859 46.39 44.0257 46.4467 44.1057 46.56C44.1857 46.6733 44.2257 46.79 44.2257 46.91C44.2257 46.99 44.2057 47.0633 44.1657 47.13C44.1324 47.1967 44.059 47.2667 43.9457 47.34C43.8324 47.4133 43.659 47.51 43.4257 47.63C43.1124 47.79 42.8024 48 42.4957 48.26C42.1957 48.52 41.8957 48.8533 41.5957 49.26C41.2957 49.6667 40.9924 50.1667 40.6857 50.76C40.379 51.3533 40.0624 52.06 39.7357 52.88C39.6757 53.1067 39.589 53.2567 39.4757 53.33C39.369 53.4033 39.2524 53.44 39.1257 53.44ZM44.6671 53.04C44.2471 53.04 43.9404 52.9133 43.7471 52.66C43.5604 52.4 43.4671 52.07 43.4671 51.67C43.4671 51.29 43.5504 50.9233 43.7171 50.57C43.8838 50.21 44.1071 49.8667 44.3871 49.54C44.6671 49.2133 44.9804 48.91 45.3271 48.63C45.6738 48.3433 46.0238 48.0867 46.3771 47.86C46.7371 47.6267 47.0804 47.43 47.4071 47.27C47.7338 47.1033 48.0171 46.9767 48.2571 46.89C48.4971 46.8033 48.6704 46.76 48.7771 46.76C48.8904 46.76 48.9838 46.79 49.0571 46.85C49.1371 46.9033 49.1771 47.01 49.1771 47.17C49.1771 47.3367 49.1104 47.4867 48.9771 47.62C48.8438 47.7533 48.6804 47.8667 48.4871 47.96C48.2138 48.0933 47.9038 48.2567 47.5571 48.45C47.2171 48.6367 46.8738 48.85 46.5271 49.09C46.1804 49.33 45.8604 49.5867 45.5671 49.86C45.2804 50.1333 45.0471 50.42 44.8671 50.72C44.6871 51.0133 44.5971 51.3133 44.5971 51.62C44.5971 51.6867 44.6104 51.74 44.6371 51.78C44.6638 51.82 44.7204 51.84 44.8071 51.84C44.9204 51.84 45.0704 51.7867 45.2571 51.68C45.4438 51.5667 45.6471 51.42 45.8671 51.24C46.0871 51.0533 46.3071 50.85 46.5271 50.63C46.7471 50.4033 46.9504 50.1767 47.1371 49.95C47.3304 49.7167 47.4904 49.5 47.6171 49.3C47.7104 49.1467 47.8204 49.02 47.9471 48.92C48.0804 48.82 48.2171 48.77 48.3571 48.77C48.4704 48.77 48.5638 48.8033 48.6371 48.87C48.7171 48.93 48.7571 49.04 48.7571 49.2C48.7571 49.2533 48.7538 49.38 48.7471 49.58C48.7404 49.7733 48.7304 50.01 48.7171 50.29C48.7104 50.5633 48.7071 50.85 48.7071 51.15C48.7071 51.41 48.7304 51.6367 48.7771 51.83C48.8304 52.0167 48.9404 52.11 49.1071 52.11C49.3071 52.11 49.5138 52.04 49.7271 51.9C49.9404 51.7533 50.1471 51.57 50.3471 51.35C50.5538 51.1233 50.7438 50.8833 50.9171 50.63C51.0904 50.3767 51.2371 50.1367 51.3571 49.91C51.4838 49.6767 51.5738 49.49 51.6271 49.35C51.7138 48.7633 51.8271 48.3033 51.9671 47.97C52.1071 47.63 52.2604 47.39 52.4271 47.25C52.6004 47.11 52.7671 47.04 52.9271 47.04C53.1071 47.04 53.2571 47.0833 53.3771 47.17C53.5038 47.2567 53.5671 47.46 53.5671 47.78C53.5671 47.9467 53.4971 48.1967 53.3571 48.53C53.2171 48.8633 53.0304 49.23 52.7971 49.63C52.7438 49.93 52.7104 50.24 52.6971 50.56C52.6838 50.88 52.7038 51.18 52.7571 51.46C52.9371 51.3333 53.1204 51.1467 53.3071 50.9C53.4938 50.6467 53.6804 50.3667 53.8671 50.06C54.0538 49.7467 54.2404 49.4333 54.4271 49.12C54.6138 48.8 54.7971 48.5067 54.9771 48.24C55.1638 47.9733 55.3438 47.76 55.5171 47.6C55.6971 47.4333 55.8738 47.35 56.0471 47.35C56.2271 47.35 56.3904 47.3833 56.5371 47.45C56.6904 47.51 56.8171 47.63 56.9171 47.81C57.0238 47.9833 57.1038 48.2333 57.1571 48.56C57.2171 48.88 57.2471 49.3 57.2471 49.82C57.2471 50.0933 57.2738 50.36 57.3271 50.62C57.3804 50.8733 57.4704 51.0833 57.5971 51.25C57.7238 51.41 57.9004 51.49 58.1271 51.49C58.4938 51.49 58.8204 51.43 59.1071 51.31C59.3938 51.1833 59.6438 51.0367 59.8571 50.87C60.0704 50.7033 60.2471 50.56 60.3871 50.44C60.5338 50.3133 60.6471 50.25 60.7271 50.25C60.8604 50.25 60.9604 50.29 61.0271 50.37C61.1004 50.4433 61.1371 50.5367 61.1371 50.65C61.1371 50.7167 61.0804 50.8333 60.9671 51C60.8604 51.16 60.7104 51.34 60.5171 51.54C60.3304 51.7333 60.1104 51.9233 59.8571 52.11C59.6104 52.29 59.3471 52.44 59.0671 52.56C58.7871 52.68 58.5038 52.74 58.2171 52.74C57.6971 52.74 57.2671 52.6467 56.9271 52.46C56.5938 52.2667 56.3438 51.9467 56.1771 51.5C56.0171 51.0467 55.9371 50.4367 55.9371 49.67C55.9371 49.6233 55.9371 49.58 55.9371 49.54C55.9371 49.5 55.9371 49.46 55.9371 49.42C55.9371 49.2533 55.9338 49.11 55.9271 48.99C55.9271 48.87 55.9104 48.7767 55.8771 48.71C55.7704 48.89 55.6404 49.1167 55.4871 49.39C55.3404 49.6633 55.1771 49.9567 54.9971 50.27C54.8171 50.5833 54.6238 50.8933 54.4171 51.2C54.2171 51.5067 54.0138 51.7867 53.8071 52.04C53.6004 52.2933 53.3938 52.4967 53.1871 52.65C52.9871 52.8033 52.7971 52.88 52.6171 52.88C52.4838 52.88 52.3371 52.8133 52.1771 52.68C52.0238 52.5467 51.8938 52.3667 51.7871 52.14C51.6804 51.9067 51.6271 51.6433 51.6271 51.35C51.3404 51.71 51.0438 52.04 50.7371 52.34C50.4304 52.6333 50.1271 52.8667 49.8271 53.04C49.5338 53.22 49.2538 53.31 48.9871 53.31C48.7671 53.31 48.5538 53.2467 48.3471 53.12C48.1471 52.9933 47.9738 52.7667 47.8271 52.44C47.6804 52.1133 47.5871 51.65 47.5471 51.05C47.2338 51.4433 46.9071 51.79 46.5671 52.09C46.2338 52.39 45.9038 52.6233 45.5771 52.79C45.2571 52.9567 44.9538 53.04 44.6671 53.04ZM61.6434 53.33C61.17 53.33 60.79 53.1633 60.5034 52.83C60.2167 52.49 60.0734 52.0367 60.0734 51.47C60.0734 51.29 60.0967 51.1067 60.1434 50.92C60.1967 50.7333 60.26 50.56 60.3334 50.4C60.2934 50.34 60.26 50.2633 60.2334 50.17C60.2134 50.07 60.2034 49.9533 60.2034 49.82C60.2034 49.3867 60.28 48.99 60.4334 48.63C60.5867 48.2633 60.7934 47.9467 61.0534 47.68C61.3134 47.4133 61.6 47.2067 61.9134 47.06C62.2267 46.9133 62.5434 46.84 62.8634 46.84C63.41 46.84 63.8567 47.0233 64.2034 47.39C64.5567 47.7567 64.7334 48.3267 64.7334 49.1C64.7334 49.4867 64.6734 49.88 64.5534 50.28C64.4334 50.68 64.27 51.0633 64.0634 51.43C63.8634 51.79 63.63 52.1133 63.3634 52.4C63.1034 52.6867 62.8234 52.9133 62.5234 53.08C62.23 53.2467 61.9367 53.33 61.6434 53.33ZM61.4834 49.95C61.5167 50.0233 61.5334 50.11 61.5334 50.21C61.5334 50.31 61.5134 50.4133 61.4734 50.52C61.4334 50.6267 61.3934 50.77 61.3534 50.95C61.3134 51.1233 61.2934 51.3733 61.2934 51.7C61.2934 51.7867 61.3034 51.86 61.3234 51.92C61.35 51.9733 61.4067 52 61.4934 52C61.72 52 61.9334 51.9267 62.1334 51.78C62.34 51.6333 62.5234 51.44 62.6834 51.2C62.85 50.96 62.99 50.6933 63.1034 50.4C63.2234 50.1 63.3134 49.7967 63.3734 49.49C63.44 49.1767 63.4734 48.8867 63.4734 48.62C63.4734 48.4467 63.44 48.3267 63.3734 48.26C63.3067 48.1933 63.19 48.16 63.0234 48.16C62.7967 48.16 62.5634 48.2333 62.3234 48.38C62.09 48.52 61.8934 48.7133 61.7334 48.96C61.5734 49.2 61.4934 49.4733 61.4934 49.78C61.4934 49.84 61.49 49.8967 61.4834 49.95Z" fill="#034007"/>
</svg>
